<svg width="545" height="150" viewBox="0 0 545 150" fill="none" xmlns="http://www.w3.org/2000/svg">
<path d="M37.5 56.25C37.5 45.8947 45.8947 37.5 56.25 37.5C66.6053 37.5 75 45.8947 75 56.25C75 66.6053 66.6053 75 56.25 75C45.8947 75 37.5 66.6053 37.5 56.25Z" fill="#626262"/>
<path d="M0 56.25C0 45.8947 8.39466 37.5 18.75 37.5C29.1053 37.5 37.5 45.8947 37.5 56.25C37.5 66.6053 29.1053 75 18.75 75C8.39466 75 0 66.6053 0 56.25Z" fill="#626262"/>
<path d="M37.5 18.75C37.5 8.39466 45.8947 0 56.25 0C66.6053 0 75 8.39466 75 18.75C75 29.1053 66.6053 37.5 56.25 37.5C45.8947 37.5 37.5 29.1053 37.5 18.75Z" fill="#626262"/>
<path d="M0 18.75C0 8.39466 8.39466 0 18.75 0C29.1053 0 37.5 8.39466 37.5 18.75C37.5 29.1053 29.1053 37.5 18.75 37.5C8.39466 37.5 0 29.1053 0 18.75Z" fill="#626262"/>
<path d="M75 112.5C75 91.7893 91.7893 75 112.5 75C133.211 75 150 91.7893 150 112.5C150 133.211 133.211 150 112.5 150C91.7893 150 75 133.211 75 112.5Z" fill="#626262"/>
<path d="M0 112.5C0 91.7893 16.7893 75 37.5 75C58.2107 75 75 91.7893 75 112.5C75 133.211 58.2107 150 37.5 150C16.7893 150 0 133.211 0 112.5Z" fill="#626262"/>
<path d="M75 37.5C75 16.7893 91.7893 0 112.5 0C133.211 0 150 16.7893 150 37.5C150 58.2107 133.211 75 112.5 75C91.7893 75 75 58.2107 75 37.5Z" fill="#626262"/>
<path d="M172.329 118V39.4746H188.98V118H172.329Z" fill="#C4C4C4"/>
<path d="M277.979 56.8232C284.782 56.8232 289.92 58.5778 293.394 62.0869C296.903 65.5602 298.657 71.1462 298.657 78.8447V118H282.222V82.9268C282.222 78.6299 281.488 75.3893 280.02 73.2051C278.551 71.0208 276.278 69.9287 273.198 69.9287C268.866 69.9287 265.786 71.4863 263.96 74.6016C262.134 77.681 261.221 82.1032 261.221 87.8682V118H244.839V82.9268C244.839 80.0622 244.517 77.6631 243.872 75.7295C243.228 73.7959 242.243 72.3457 240.918 71.3789C239.593 70.4121 237.892 69.9287 235.815 69.9287C232.772 69.9287 230.373 70.6986 228.618 72.2383C226.899 73.7422 225.664 75.9801 224.912 78.9521C224.196 81.8883 223.838 85.487 223.838 89.748V118H207.456V57.9512H219.971L222.173 65.6318H223.086C224.303 63.555 225.825 61.8721 227.651 60.583C229.513 59.2939 231.554 58.3451 233.774 57.7363C235.994 57.1276 238.25 56.8232 240.542 56.8232C244.946 56.8232 248.67 57.5394 251.714 58.9717C254.793 60.404 257.157 62.624 258.804 65.6318H260.254C262.044 62.5524 264.569 60.3145 267.827 58.918C271.121 57.5215 274.505 56.8232 277.979 56.8232Z" fill="#C4C4C4"/>
<path d="M340.283 56.8232C345.833 56.8232 350.614 57.8975 354.624 60.0459C358.634 62.1585 361.732 65.238 363.916 69.2842C366.1 73.3304 367.192 78.2718 367.192 84.1084V92.0576H328.467C328.646 96.6768 330.024 100.311 332.603 102.961C335.217 105.575 338.833 106.882 343.452 106.882C347.284 106.882 350.793 106.488 353.98 105.7C357.166 104.912 360.443 103.731 363.809 102.155V114.831C360.837 116.299 357.721 117.373 354.463 118.054C351.24 118.734 347.319 119.074 342.7 119.074C336.685 119.074 331.349 117.964 326.694 115.744C322.075 113.524 318.441 110.14 315.791 105.593C313.177 101.045 311.87 95.3161 311.87 88.4053C311.87 81.387 313.052 75.5505 315.415 70.8955C317.814 66.2048 321.144 62.6956 325.405 60.3682C329.666 58.0049 334.626 56.8232 340.283 56.8232ZM340.391 68.4785C337.204 68.4785 334.554 69.499 332.441 71.54C330.365 73.5811 329.165 76.7858 328.843 81.1543H351.831C351.795 78.7194 351.348 76.5531 350.488 74.6553C349.665 72.7575 348.411 71.2536 346.729 70.1436C345.081 69.0335 342.969 68.4785 340.391 68.4785Z" fill="#C4C4C4"/>
<path d="M414.028 56.8232C414.852 56.8232 415.801 56.877 416.875 56.9844C417.985 57.056 418.88 57.1634 419.561 57.3066L418.325 72.668C417.788 72.4889 417.018 72.3636 416.016 72.292C415.049 72.1846 414.207 72.1309 413.491 72.1309C411.379 72.1309 409.32 72.3994 407.314 72.9365C405.345 73.4736 403.573 74.3509 401.997 75.5684C400.422 76.75 399.168 78.3255 398.237 80.2949C397.342 82.2285 396.895 84.6097 396.895 87.4385V118H380.513V57.9512H392.92L395.337 68.0488H396.143C397.324 66.0078 398.792 64.1458 400.547 62.4629C402.337 60.7441 404.36 59.3835 406.616 58.3809C408.908 57.3424 411.379 56.8232 414.028 56.8232Z" fill="#C4C4C4"/>
<path d="M448.027 144.426C439.648 144.426 433.239 142.958 428.799 140.021C424.395 137.121 422.192 133.039 422.192 127.775C422.192 124.159 423.32 121.133 425.576 118.698C427.832 116.263 431.144 114.527 435.513 113.488C433.83 112.772 432.362 111.608 431.108 109.997C429.855 108.35 429.229 106.613 429.229 104.787C429.229 102.495 429.891 100.598 431.216 99.0938C432.541 97.554 434.456 96.0501 436.963 94.582C433.812 93.2214 431.305 91.0371 429.443 88.0293C427.617 85.0215 426.704 81.4766 426.704 77.3945C426.704 73.026 427.653 69.32 429.551 66.2764C431.484 63.1969 434.277 60.8516 437.93 59.2402C441.618 57.6289 446.094 56.8232 451.357 56.8232C452.467 56.8232 453.757 56.8949 455.225 57.0381C456.693 57.1813 458.036 57.3424 459.253 57.5215C460.506 57.7005 461.348 57.8438 461.777 57.9512H482.725V66.2764L473.325 68.6934C474.185 70.0182 474.829 71.4326 475.259 72.9365C475.689 74.4404 475.903 76.0339 475.903 77.7168C475.903 84.1621 473.647 89.193 469.136 92.8096C464.66 96.3903 458.429 98.1807 450.444 98.1807C448.547 98.0732 446.756 97.93 445.073 97.751C444.25 98.3955 443.623 99.0758 443.193 99.792C442.764 100.508 442.549 101.26 442.549 102.048C442.549 102.836 442.871 103.498 443.516 104.035C444.196 104.536 445.199 104.93 446.523 105.217C447.884 105.467 449.567 105.593 451.572 105.593H461.777C468.366 105.593 473.379 107.007 476.816 109.836C480.29 112.665 482.026 116.818 482.026 122.297C482.026 129.315 479.09 134.758 473.218 138.625C467.381 142.492 458.984 144.426 448.027 144.426ZM448.726 133.737C452.629 133.737 455.977 133.361 458.77 132.609C461.598 131.893 463.765 130.855 465.269 129.494C466.772 128.169 467.524 126.576 467.524 124.714C467.524 123.21 467.077 122.01 466.182 121.115C465.322 120.256 463.997 119.647 462.207 119.289C460.453 118.931 458.197 118.752 455.439 118.752H446.953C444.948 118.752 443.14 119.074 441.528 119.719C439.953 120.363 438.7 121.258 437.769 122.404C436.838 123.586 436.372 124.947 436.372 126.486C436.372 128.742 437.446 130.515 439.595 131.804C441.779 133.093 444.823 133.737 448.726 133.737ZM451.357 88.1904C454.437 88.1904 456.693 87.2415 458.125 85.3438C459.557 83.446 460.273 80.8678 460.273 77.6094C460.273 73.9928 459.522 71.2894 458.018 69.499C456.55 67.6729 454.329 66.7598 451.357 66.7598C448.35 66.7598 446.094 67.6729 444.59 69.499C443.086 71.2894 442.334 73.9928 442.334 77.6094C442.334 80.8678 443.068 83.446 444.536 85.3438C446.04 87.2415 448.314 88.1904 451.357 88.1904Z" fill="#C4C4C4"/>
<path d="M517.422 56.8232C522.972 56.8232 527.752 57.8975 531.763 60.0459C535.773 62.1585 538.87 65.238 541.055 69.2842C543.239 73.3304 544.331 78.2718 544.331 84.1084V92.0576H505.605C505.785 96.6768 507.163 100.311 509.741 102.961C512.355 105.575 515.972 106.882 520.591 106.882C524.422 106.882 527.931 106.488 531.118 105.7C534.305 104.912 537.581 103.731 540.947 102.155V114.831C537.975 116.299 534.86 117.373 531.602 118.054C528.379 118.734 524.458 119.074 519.839 119.074C513.823 119.074 508.488 117.964 503.833 115.744C499.214 113.524 495.579 110.14 492.93 105.593C490.316 101.045 489.009 95.3161 489.009 88.4053C489.009 81.387 490.19 75.5505 492.554 70.8955C494.953 66.2048 498.283 62.6956 502.544 60.3682C506.805 58.0049 511.764 56.8232 517.422 56.8232ZM517.529 68.4785C514.342 68.4785 511.693 69.499 509.58 71.54C507.503 73.5811 506.304 76.7858 505.981 81.1543H528.97C528.934 78.7194 528.486 76.5531 527.627 74.6553C526.803 72.7575 525.55 71.2536 523.867 70.1436C522.22 69.0335 520.107 68.4785 517.529 68.4785Z" fill="#C4C4C4"/>
</svg>
